<mxfile host="app.diagrams.net" modified="2022-03-07T04:26:26.818Z" agent="5.0 (Windows NT 10.0; Win64; x64) AppleWebKit/537.36 (KHTML, like Gecko) Chrome/99.0.4844.51 Safari/537.36" etag="JEoa8FZYkfn861erutLu" version="16.6.5" type="github">
  <diagram id="3228e29e-7158-1315-38df-8450db1d8a1d" name="Page-1">
    <mxGraphModel dx="1038" dy="568" grid="1" gridSize="10" guides="1" tooltips="1" connect="1" arrows="1" fold="1" page="1" pageScale="1" pageWidth="1169" pageHeight="827" background="none" math="0" shadow="0">
      <root>
        <mxCell id="0" />
        <mxCell id="1" parent="0" />
        <mxCell id="bE7aVnteh-IxPAPsYv1F-21613" value="" style="rounded=1;whiteSpace=wrap;html=1;fillColor=#d5e8d4;strokeColor=#82b366;" vertex="1" parent="1">
          <mxGeometry x="660" y="335" width="240" height="340" as="geometry" />
        </mxCell>
        <mxCell id="bE7aVnteh-IxPAPsYv1F-21612" value="" style="rounded=1;whiteSpace=wrap;html=1;fillColor=#f8cecc;strokeColor=#b85450;" vertex="1" parent="1">
          <mxGeometry x="100" y="335" width="510" height="340" as="geometry" />
        </mxCell>
        <mxCell id="bE7aVnteh-IxPAPsYv1F-21604" value="Template" style="rounded=1;whiteSpace=wrap;html=1;fillColor=#dae8fc;strokeColor=#6c8ebf;" vertex="1" parent="1">
          <mxGeometry x="720" y="365" width="120" height="60" as="geometry" />
        </mxCell>
        <mxCell id="bE7aVnteh-IxPAPsYv1F-21605" value="Element-UI" style="rounded=1;whiteSpace=wrap;html=1;fillColor=#dae8fc;strokeColor=#6c8ebf;" vertex="1" parent="1">
          <mxGeometry x="720" y="595" width="120" height="60" as="geometry" />
        </mxCell>
        <mxCell id="bE7aVnteh-IxPAPsYv1F-21606" value="SimpleUI" style="rounded=1;whiteSpace=wrap;html=1;fillColor=#dae8fc;strokeColor=#6c8ebf;" vertex="1" parent="1">
          <mxGeometry x="720" y="475" width="120" height="60" as="geometry" />
        </mxCell>
        <mxCell id="bE7aVnteh-IxPAPsYv1F-21607" value="Django&lt;br&gt;集成多种现代框架的快速web框架" style="rounded=1;whiteSpace=wrap;html=1;fillColor=#dae8fc;strokeColor=#6c8ebf;" vertex="1" parent="1">
          <mxGeometry x="300" y="485" width="120" height="60" as="geometry" />
        </mxCell>
        <mxCell id="bE7aVnteh-IxPAPsYv1F-21608" value="Ray&lt;br&gt;并行计算框架" style="rounded=1;whiteSpace=wrap;html=1;fillColor=#dae8fc;strokeColor=#6c8ebf;" vertex="1" parent="1">
          <mxGeometry x="420" y="580" width="120" height="60" as="geometry" />
        </mxCell>
        <mxCell id="bE7aVnteh-IxPAPsYv1F-21609" value="Portion&lt;br&gt;区间计算框架" style="rounded=1;whiteSpace=wrap;html=1;fillColor=#dae8fc;strokeColor=#6c8ebf;" vertex="1" parent="1">
          <mxGeometry x="420" y="385" width="120" height="60" as="geometry" />
        </mxCell>
        <mxCell id="bE7aVnteh-IxPAPsYv1F-21610" value="pandas&lt;br&gt;表格式数据处理工具" style="rounded=1;whiteSpace=wrap;html=1;fillColor=#dae8fc;strokeColor=#6c8ebf;" vertex="1" parent="1">
          <mxGeometry x="180" y="385" width="120" height="60" as="geometry" />
        </mxCell>
        <mxCell id="bE7aVnteh-IxPAPsYv1F-21611" value="scikit-learn&lt;br&gt;预测模型框架" style="rounded=1;whiteSpace=wrap;html=1;fillColor=#dae8fc;strokeColor=#6c8ebf;" vertex="1" parent="1">
          <mxGeometry x="170" y="580" width="120" height="60" as="geometry" />
        </mxCell>
        <mxCell id="bE7aVnteh-IxPAPsYv1F-21614" value="" style="shape=flexArrow;endArrow=classic;html=1;rounded=1;entryX=0;entryY=0.5;entryDx=0;entryDy=0;exitX=1;exitY=0.5;exitDx=0;exitDy=0;fillColor=#FFA8B7;gradientColor=#A6FFC6;" edge="1" parent="1" source="bE7aVnteh-IxPAPsYv1F-21612" target="bE7aVnteh-IxPAPsYv1F-21613">
          <mxGeometry width="50" height="50" relative="1" as="geometry">
            <mxPoint x="620" y="510" as="sourcePoint" />
            <mxPoint x="570" y="460" as="targetPoint" />
          </mxGeometry>
        </mxCell>
        <mxCell id="bE7aVnteh-IxPAPsYv1F-21616" value="服务器及算法端" style="text;html=1;strokeColor=none;fillColor=none;align=center;verticalAlign=middle;whiteSpace=wrap;rounded=0;fontStyle=1;strokeWidth=3;fontSize=16;" vertex="1" parent="1">
          <mxGeometry x="283.75" y="340" width="152.5" height="30" as="geometry" />
        </mxCell>
        <mxCell id="bE7aVnteh-IxPAPsYv1F-21617" value="网页前端" style="text;html=1;strokeColor=none;fillColor=none;align=center;verticalAlign=middle;whiteSpace=wrap;rounded=0;fontStyle=1;strokeWidth=3;fontSize=16;" vertex="1" parent="1">
          <mxGeometry x="740" y="335" width="80" height="25" as="geometry" />
        </mxCell>
        <mxCell id="bE7aVnteh-IxPAPsYv1F-21620" value="" style="endArrow=classic;html=1;rounded=0;exitX=0.5;exitY=1;exitDx=0;exitDy=0;entryX=1;entryY=0.5;entryDx=0;entryDy=0;fillColor=#dae8fc;strokeColor=#6c8ebf;" edge="1" parent="1" source="bE7aVnteh-IxPAPsYv1F-21609" target="bE7aVnteh-IxPAPsYv1F-21607">
          <mxGeometry width="50" height="50" relative="1" as="geometry">
            <mxPoint x="520" y="500" as="sourcePoint" />
            <mxPoint x="570" y="450" as="targetPoint" />
            <Array as="points">
              <mxPoint x="450" y="480" />
            </Array>
          </mxGeometry>
        </mxCell>
        <mxCell id="bE7aVnteh-IxPAPsYv1F-21621" value="" style="endArrow=classic;html=1;rounded=0;exitX=0.5;exitY=0;exitDx=0;exitDy=0;entryX=1;entryY=0.5;entryDx=0;entryDy=0;fillColor=#dae8fc;strokeColor=#6c8ebf;" edge="1" parent="1" source="bE7aVnteh-IxPAPsYv1F-21608" target="bE7aVnteh-IxPAPsYv1F-21607">
          <mxGeometry width="50" height="50" relative="1" as="geometry">
            <mxPoint x="490" y="455" as="sourcePoint" />
            <mxPoint x="430" y="525" as="targetPoint" />
            <Array as="points" />
          </mxGeometry>
        </mxCell>
        <mxCell id="bE7aVnteh-IxPAPsYv1F-21622" value="" style="endArrow=classic;html=1;rounded=0;exitX=0.5;exitY=0;exitDx=0;exitDy=0;entryX=0;entryY=0.5;entryDx=0;entryDy=0;fillColor=#dae8fc;strokeColor=#6c8ebf;" edge="1" parent="1" source="bE7aVnteh-IxPAPsYv1F-21611" target="bE7aVnteh-IxPAPsYv1F-21607">
          <mxGeometry width="50" height="50" relative="1" as="geometry">
            <mxPoint x="520" y="500" as="sourcePoint" />
            <mxPoint x="570" y="450" as="targetPoint" />
          </mxGeometry>
        </mxCell>
        <mxCell id="bE7aVnteh-IxPAPsYv1F-21623" value="" style="endArrow=classic;html=1;rounded=0;exitX=0.5;exitY=1;exitDx=0;exitDy=0;entryX=0;entryY=0.5;entryDx=0;entryDy=0;fillColor=#dae8fc;strokeColor=#6c8ebf;" edge="1" parent="1" source="bE7aVnteh-IxPAPsYv1F-21610" target="bE7aVnteh-IxPAPsYv1F-21607">
          <mxGeometry width="50" height="50" relative="1" as="geometry">
            <mxPoint x="490" y="455" as="sourcePoint" />
            <mxPoint x="430" y="525" as="targetPoint" />
            <Array as="points" />
          </mxGeometry>
        </mxCell>
      </root>
    </mxGraphModel>
  </diagram>
</mxfile>
